<svg width="418" height="93" viewBox="0 0 418 93" fill="none" xmlns="http://www.w3.org/2000/svg">
<path d="M169.022 52.6934L162.992 41.4955H162.088V52.6934H153.646V22.3298H166.955C169.395 22.3298 171.463 22.7605 173.157 23.6219C174.851 24.4546 176.128 25.6174 176.99 27.1105C177.851 28.5748 178.282 30.2258 178.282 32.0634C178.282 34.1307 177.708 35.9539 176.559 37.5331C175.439 39.0836 173.788 40.189 171.606 40.8494L178.454 52.6934H169.022ZM162.088 35.7242H166.266C167.414 35.7242 168.276 35.4515 168.85 34.9059C169.424 34.3604 169.711 33.5708 169.711 32.5371C169.711 31.5609 169.41 30.8 168.807 30.2545C168.232 29.6802 167.385 29.3931 166.266 29.3931H162.088V35.7242ZM193.362 52.9948C190.95 52.9948 188.782 52.4924 186.858 51.4874C184.963 50.4825 183.47 49.0469 182.379 47.1805C181.288 45.3142 180.742 43.1177 180.742 40.591C180.742 38.093 181.288 35.9109 182.379 34.0446C183.499 32.1782 185.006 30.7426 186.901 29.7377C188.825 28.7327 190.993 28.2303 193.405 28.2303C195.817 28.2303 197.97 28.7327 199.865 29.7377C201.789 30.7426 203.296 32.1782 204.387 34.0446C205.507 35.9109 206.067 38.093 206.067 40.591C206.067 43.089 205.507 45.2855 204.387 47.1805C203.296 49.0469 201.789 50.4825 199.865 51.4874C197.941 52.4924 195.774 52.9948 193.362 52.9948ZM193.362 45.6731C194.539 45.6731 195.515 45.2424 196.29 44.3811C197.094 43.491 197.496 42.2276 197.496 40.591C197.496 38.9544 197.094 37.7054 196.29 36.844C195.515 35.9826 194.553 35.552 193.405 35.552C192.256 35.552 191.294 35.9826 190.519 36.844C189.744 37.7054 189.356 38.9544 189.356 40.591C189.356 42.2563 189.73 43.5197 190.476 44.3811C191.223 45.2424 192.184 45.6731 193.362 45.6731ZM234.223 28.5317V52.6934H225.738V49.2479C225.021 50.3389 224.03 51.229 222.767 51.9181C221.503 52.5785 220.053 52.9087 218.417 52.9087C215.603 52.9087 213.378 51.9899 211.741 50.1523C210.133 48.286 209.329 45.7593 209.329 42.5722V28.5317H217.728V41.4955C217.728 42.8737 218.086 43.9647 218.804 44.7687C219.551 45.5439 220.527 45.9316 221.733 45.9316C222.968 45.9316 223.944 45.5439 224.662 44.7687C225.379 43.9647 225.738 42.8737 225.738 41.4955V28.5317H234.223ZM254.833 28.3164C257.618 28.3164 259.829 29.2496 261.466 31.1159C263.103 32.9535 263.921 35.4515 263.921 38.6098V52.6934H255.479V39.7296C255.479 38.3514 255.12 37.2747 254.403 36.4995C253.685 35.6955 252.723 35.2935 251.517 35.2935C250.254 35.2935 249.263 35.6955 248.545 36.4995C247.827 37.2747 247.469 38.3514 247.469 39.7296V52.6934H239.027V28.5317H247.469V31.9772C248.215 30.8862 249.22 30.0104 250.483 29.35C251.747 28.6609 253.197 28.3164 254.833 28.3164ZM267.175 40.591C267.175 38.093 267.62 35.9109 268.51 34.0446C269.429 32.1782 270.678 30.7426 272.257 29.7377C273.836 28.7327 275.587 28.2303 277.511 28.2303C279.062 28.2303 280.44 28.5605 281.646 29.2208C282.88 29.8525 283.842 30.7283 284.531 31.848V20.8224H293.016V52.6934H284.531V49.334C283.871 50.4538 282.938 51.3439 281.732 52.0043C280.526 52.6646 279.105 52.9948 277.468 52.9948C275.544 52.9948 273.793 52.4924 272.214 51.4874C270.663 50.4825 269.429 49.0469 268.51 47.1805C267.62 45.2855 267.175 43.089 267.175 40.591ZM284.574 40.591C284.574 39.0405 284.144 37.8203 283.282 36.9302C282.45 36.0401 281.416 35.595 280.181 35.595C278.918 35.595 277.87 36.0401 277.037 36.9302C276.205 37.7915 275.788 39.0118 275.788 40.591C275.788 42.1415 276.205 43.3761 277.037 44.2949C277.87 45.185 278.918 45.6301 280.181 45.6301C281.416 45.6301 282.45 45.185 283.282 44.2949C284.144 43.4048 284.574 42.1702 284.574 40.591ZM321.445 52.6934L315.416 41.4955H314.511V52.6934H306.07V22.3298H319.378C321.819 22.3298 323.886 22.7605 325.58 23.6219C327.274 24.4546 328.552 25.6174 329.413 27.1105C330.274 28.5748 330.705 30.2258 330.705 32.0634C330.705 34.1307 330.131 35.9539 328.982 37.5331C327.863 39.0836 326.212 40.189 324.029 40.8494L330.877 52.6934H321.445ZM314.511 35.7242H318.689C319.837 35.7242 320.699 35.4515 321.273 34.9059C321.847 34.3604 322.134 33.5708 322.134 32.5371C322.134 31.5609 321.833 30.8 321.23 30.2545C320.656 29.6802 319.809 29.3931 318.689 29.3931H314.511V35.7242ZM345.785 52.9948C343.373 52.9948 341.205 52.4924 339.282 51.4874C337.387 50.4825 335.894 49.0469 334.802 47.1805C333.711 45.3142 333.166 43.1177 333.166 40.591C333.166 38.093 333.711 35.9109 334.802 34.0446C335.922 32.1782 337.43 30.7426 339.325 29.7377C341.248 28.7327 343.416 28.2303 345.828 28.2303C348.24 28.2303 350.393 28.7327 352.288 29.7377C354.212 30.7426 355.72 32.1782 356.811 34.0446C357.93 35.9109 358.49 38.093 358.49 40.591C358.49 43.089 357.93 45.2855 356.811 47.1805C355.72 49.0469 354.212 50.4825 352.288 51.4874C350.365 52.4924 348.197 52.9948 345.785 52.9948ZM345.785 45.6731C346.962 45.6731 347.938 45.2424 348.714 44.3811C349.518 43.491 349.92 42.2276 349.92 40.591C349.92 38.9544 349.518 37.7054 348.714 36.844C347.938 35.9826 346.977 35.552 345.828 35.552C344.68 35.552 343.718 35.9826 342.942 36.844C342.167 37.7054 341.78 38.9544 341.78 40.591C341.78 42.2563 342.153 43.5197 342.899 44.3811C343.646 45.2424 344.608 45.6731 345.785 45.6731ZM360.546 40.591C360.546 38.093 361.063 35.9109 362.097 34.0446C363.131 32.1782 364.566 30.7426 366.404 29.7377C368.27 28.7327 370.395 28.2303 372.778 28.2303C375.85 28.2303 378.434 29.0773 380.53 30.7713C382.626 32.4366 383.976 34.7767 384.579 37.7915H375.621C375.104 36.2123 374.099 35.4228 372.606 35.4228C371.543 35.4228 370.696 35.8678 370.065 36.7579C369.462 37.6193 369.16 38.897 369.16 40.591C369.16 42.2851 369.462 43.5771 370.065 44.4672C370.696 45.3573 371.543 45.8023 372.606 45.8023C374.128 45.8023 375.132 45.0127 375.621 43.4336H384.579C383.976 46.4197 382.626 48.7597 380.53 50.4538C378.434 52.1478 375.85 52.9948 372.778 52.9948C370.395 52.9948 368.27 52.4924 366.404 51.4874C364.566 50.4825 363.131 49.0469 362.097 47.1805C361.063 45.3142 360.546 43.1177 360.546 40.591ZM403.203 52.6934L396.527 42.7875V52.6934H388.086V20.8224H396.527V38.0069L403.203 28.5317H413.324L403.806 40.6772L413.496 52.6934H403.203ZM168.27 62.0298V75.6934H164.472V68.1542L161.894 75.6934H158.716L156.119 68.096V75.6934H152.32V62.0298H156.913L160.344 70.9063L163.697 62.0298H168.27ZM182.662 75.829C181.577 75.829 180.601 75.6029 179.736 75.1507C178.883 74.6985 178.211 74.0524 177.72 73.2126C177.229 72.3728 176.984 71.3843 176.984 70.2473C176.984 69.1232 177.229 68.1412 177.72 67.3014C178.224 66.4616 178.902 65.8155 179.755 65.3633C180.621 64.9111 181.596 64.685 182.682 64.685C183.767 64.685 184.736 64.9111 185.589 65.3633C186.454 65.8155 187.133 66.4616 187.624 67.3014C188.128 68.1412 188.38 69.1232 188.38 70.2473C188.38 71.3714 188.128 72.3598 187.624 73.2126C187.133 74.0524 186.454 74.6985 185.589 75.1507C184.723 75.6029 183.748 75.829 182.662 75.829ZM182.662 72.5343C183.192 72.5343 183.631 72.3405 183.98 71.9528C184.342 71.5523 184.523 70.9838 184.523 70.2473C184.523 69.5108 184.342 68.9488 183.98 68.5612C183.631 68.1735 183.198 67.9797 182.682 67.9797C182.165 67.9797 181.732 68.1735 181.383 68.5612C181.034 68.9488 180.86 69.5108 180.86 70.2473C180.86 70.9967 181.028 71.5652 181.364 71.9528C181.7 72.3405 182.132 72.5343 182.662 72.5343ZM202.31 72.1079L204.345 64.8206H208.395L204.655 75.6934H199.926L196.185 64.8206H200.236L202.31 72.1079ZM218.772 63.8128C218.1 63.8128 217.557 63.6319 217.144 63.2702C216.743 62.8955 216.543 62.4303 216.543 61.8747C216.543 61.3062 216.743 60.8346 217.144 60.4599C217.557 60.0852 218.1 59.8979 218.772 59.8979C219.431 59.8979 219.961 60.0852 220.361 60.4599C220.775 60.8346 220.981 61.3062 220.981 61.8747C220.981 62.4303 220.775 62.8955 220.361 63.2702C219.961 63.6319 219.431 63.8128 218.772 63.8128ZM220.652 64.8206V75.6934H216.853V64.8206H220.652ZM237.099 64.7237C238.352 64.7237 239.347 65.1436 240.084 65.9835C240.82 66.8104 241.188 67.9345 241.188 69.3558V75.6934H237.39V69.8597C237.39 69.2395 237.228 68.755 236.905 68.4061C236.582 68.0443 236.149 67.8634 235.607 67.8634C235.038 67.8634 234.592 68.0443 234.269 68.4061C233.946 68.755 233.785 69.2395 233.785 69.8597V75.6934H229.986V64.8206H233.785V66.3711C234.121 65.8801 234.573 65.486 235.142 65.1889C235.71 64.8788 236.363 64.7237 237.099 64.7237ZM254.456 64.685C255.192 64.685 255.832 64.8336 256.374 65.1307C256.93 65.4279 257.356 65.8284 257.653 66.3323V64.8206H261.452V75.5771C261.452 76.5978 261.258 77.5152 260.871 78.3292C260.483 79.1561 259.876 79.815 259.049 80.306C258.235 80.797 257.201 81.0425 255.948 81.0425C254.268 81.0425 252.924 80.6484 251.917 79.8603C250.909 79.0721 250.334 77.9997 250.192 76.643H253.932C254.01 76.9919 254.204 77.2632 254.514 77.457C254.824 77.6508 255.224 77.7477 255.715 77.7477C257.007 77.7477 257.653 77.0242 257.653 75.5771V74.1816C257.356 74.6855 256.93 75.0861 256.374 75.3833C255.832 75.6804 255.192 75.829 254.456 75.829C253.59 75.829 252.802 75.6029 252.091 75.1507C251.393 74.6985 250.838 74.0524 250.424 73.2126C250.024 72.3598 249.824 71.3714 249.824 70.2473C249.824 69.1232 250.024 68.1412 250.424 67.3014C250.838 66.4616 251.393 65.8155 252.091 65.3633C252.802 64.9111 253.59 64.685 254.456 64.685ZM257.653 70.2473C257.653 69.5496 257.46 69.0005 257.072 68.5999C256.697 68.1994 256.232 67.9991 255.677 67.9991C255.108 67.9991 254.636 68.1994 254.262 68.5999C253.887 68.9875 253.7 69.5367 253.7 70.2473C253.7 70.945 253.887 71.5006 254.262 71.9141C254.636 72.3146 255.108 72.5149 255.677 72.5149C256.232 72.5149 256.697 72.3146 257.072 71.9141C257.46 71.5135 257.653 70.9579 257.653 70.2473ZM286.824 75.829C285.234 75.829 283.929 75.4543 282.909 74.7049C281.888 73.9426 281.339 72.8573 281.261 71.4489H285.312C285.351 71.927 285.493 72.2758 285.738 72.4955C285.984 72.7151 286.3 72.825 286.688 72.825C287.037 72.825 287.321 72.741 287.541 72.573C287.773 72.3921 287.89 72.1466 287.89 71.8365C287.89 71.436 287.702 71.1259 287.328 70.9063C286.953 70.6866 286.346 70.4411 285.506 70.1698C284.614 69.8726 283.891 69.5884 283.335 69.317C282.792 69.0328 282.314 68.6258 281.901 68.096C281.5 67.5533 281.3 66.8492 281.3 65.9835C281.3 65.1049 281.52 64.3555 281.959 63.7353C282.398 63.1022 283.006 62.6241 283.781 62.3011C284.556 61.9781 285.435 61.8166 286.417 61.8166C288.006 61.8166 289.272 62.1913 290.215 62.9407C291.171 63.6772 291.682 64.7173 291.746 66.061H287.618C287.605 65.6476 287.476 65.3375 287.231 65.1307C286.998 64.924 286.694 64.8206 286.32 64.8206C286.035 64.8206 285.803 64.9046 285.622 65.0726C285.441 65.2406 285.351 65.4796 285.351 65.7897C285.351 66.0481 285.448 66.2742 285.641 66.468C285.848 66.6489 286.1 66.8104 286.397 66.9525C286.694 67.0817 287.134 67.2497 287.715 67.4564C288.581 67.7536 289.291 68.0508 289.847 68.348C290.416 68.6322 290.9 69.0392 291.301 69.569C291.714 70.0858 291.921 70.7447 291.921 71.5458C291.921 72.3598 291.714 73.0898 291.301 73.7359C290.9 74.3819 290.312 74.8923 289.537 75.267C288.775 75.6417 287.87 75.829 286.824 75.829ZM311.246 70.131C311.246 70.4282 311.227 70.7254 311.188 71.0225H303.997C304.036 71.6169 304.198 72.0627 304.482 72.3598C304.779 72.6441 305.154 72.7862 305.606 72.7862C306.239 72.7862 306.691 72.502 306.963 71.9334H311.013C310.845 72.6828 310.516 73.3547 310.025 73.9491C309.547 74.5305 308.94 74.9892 308.203 75.3251C307.467 75.6611 306.653 75.829 305.761 75.829C304.689 75.829 303.733 75.6029 302.893 75.1507C302.066 74.6985 301.413 74.0524 300.935 73.2126C300.47 72.3728 300.238 71.3843 300.238 70.2473C300.238 69.1103 300.47 68.1283 300.935 67.3014C301.4 66.4616 302.046 65.8155 302.873 65.3633C303.713 64.9111 304.676 64.685 305.761 64.685C306.834 64.685 307.783 64.9046 308.61 65.3439C309.437 65.7832 310.083 66.4163 310.548 67.2433C311.013 68.0573 311.246 69.0198 311.246 70.131ZM307.37 69.1814C307.37 68.7162 307.215 68.3544 306.905 68.096C306.595 67.8247 306.207 67.689 305.742 67.689C305.277 67.689 304.895 67.8182 304.598 68.0766C304.301 68.3221 304.107 68.6904 304.017 69.1814H307.37ZM323.77 66.7393C324.197 66.1192 324.713 65.6282 325.321 65.2664C325.928 64.9046 326.58 64.7237 327.278 64.7237V68.7743H326.212C325.385 68.7743 324.771 68.9359 324.371 69.2589C323.97 69.5819 323.77 70.1439 323.77 70.945V75.6934H319.971V64.8206H323.77V66.7393ZM341.024 72.1079L343.059 64.8206H347.11L343.369 75.6934H338.64L334.9 64.8206H338.951L341.024 72.1079ZM357.487 63.8128C356.815 63.8128 356.272 63.6319 355.859 63.2702C355.458 62.8955 355.258 62.4303 355.258 61.8747C355.258 61.3062 355.458 60.8346 355.859 60.4599C356.272 60.0852 356.815 59.8979 357.487 59.8979C358.146 59.8979 358.676 60.0852 359.076 60.4599C359.49 60.8346 359.696 61.3062 359.696 61.8747C359.696 62.4303 359.49 62.8955 359.076 63.2702C358.676 63.6319 358.146 63.8128 357.487 63.8128ZM359.367 64.8206V75.6934H355.568V64.8206H359.367ZM368.081 70.2473C368.081 69.1232 368.313 68.1412 368.779 67.3014C369.244 66.4616 369.89 65.8155 370.717 65.3633C371.556 64.9111 372.513 64.685 373.585 64.685C374.968 64.685 376.13 65.0661 377.074 65.8284C378.017 66.5778 378.624 67.6309 378.895 68.9875H374.864C374.632 68.2769 374.179 67.9216 373.507 67.9216C373.029 67.9216 372.648 68.1219 372.364 68.5224C372.093 68.91 371.957 69.485 371.957 70.2473C371.957 71.0096 372.093 71.5911 372.364 71.9916C372.648 72.3921 373.029 72.5924 373.507 72.5924C374.192 72.5924 374.644 72.2371 374.864 71.5264H378.895C378.624 72.8702 378.017 73.9232 377.074 74.6855C376.13 75.4479 374.968 75.829 373.585 75.829C372.513 75.829 371.556 75.6029 370.717 75.1507C369.89 74.6985 369.244 74.0524 368.779 73.2126C368.313 72.3728 368.081 71.3843 368.081 70.2473ZM398.033 70.131C398.033 70.4282 398.013 70.7254 397.974 71.0225H390.784C390.823 71.6169 390.984 72.0627 391.269 72.3598C391.566 72.6441 391.941 72.7862 392.393 72.7862C393.026 72.7862 393.478 72.502 393.749 71.9334H397.8C397.632 72.6828 397.303 73.3547 396.812 73.9491C396.334 74.5305 395.726 74.9892 394.99 75.3251C394.253 75.6611 393.439 75.829 392.548 75.829C391.475 75.829 390.519 75.6029 389.679 75.1507C388.852 74.6985 388.2 74.0524 387.722 73.2126C387.257 72.3728 387.024 71.3843 387.024 70.2473C387.024 69.1103 387.257 68.1283 387.722 67.3014C388.187 66.4616 388.833 65.8155 389.66 65.3633C390.5 64.9111 391.462 64.685 392.548 64.685C393.62 64.685 394.57 64.9046 395.397 65.3439C396.224 65.7832 396.87 66.4163 397.335 67.2433C397.8 68.0573 398.033 69.0198 398.033 70.131ZM394.156 69.1814C394.156 68.7162 394.001 68.3544 393.691 68.096C393.381 67.8247 392.994 67.689 392.528 67.689C392.063 67.689 391.682 67.8182 391.385 68.0766C391.088 68.3221 390.894 68.6904 390.803 69.1814H394.156ZM411.39 75.829C410.408 75.829 409.53 75.6675 408.754 75.3445C407.992 75.0086 407.385 74.5563 406.933 73.9878C406.493 73.4064 406.248 72.7539 406.196 72.0304H409.878C409.93 72.3792 410.092 72.6505 410.363 72.8444C410.634 73.0382 410.97 73.1351 411.371 73.1351C411.681 73.1351 411.926 73.0705 412.107 72.9413C412.288 72.8121 412.379 72.6441 412.379 72.4374C412.379 72.166 412.23 71.9658 411.933 71.8365C411.636 71.7073 411.145 71.5652 410.46 71.4102C409.685 71.2551 409.039 71.0807 408.522 70.8869C408.005 70.6931 407.553 70.3765 407.165 69.9372C406.79 69.4979 406.603 68.9036 406.603 68.1542C406.603 67.5081 406.778 66.9267 407.126 66.4099C407.475 65.8801 407.986 65.4602 408.657 65.1501C409.342 64.84 410.163 64.685 411.119 64.685C412.54 64.685 413.658 65.0338 414.472 65.7315C415.286 66.4293 415.757 67.3466 415.887 68.4836H412.456C412.392 68.1348 412.236 67.8699 411.991 67.689C411.758 67.4952 411.442 67.3983 411.041 67.3983C410.731 67.3983 410.492 67.4564 410.324 67.5727C410.169 67.689 410.092 67.8505 410.092 68.0573C410.092 68.3157 410.24 68.5159 410.537 68.6581C410.835 68.7873 411.313 68.9229 411.972 69.0651C412.76 69.233 413.412 69.4204 413.929 69.6271C414.459 69.8338 414.918 70.1698 415.305 70.6349C415.706 71.0871 415.906 71.7073 415.906 72.4955C415.906 73.1286 415.719 73.6971 415.344 74.201C414.982 74.7049 414.459 75.1055 413.774 75.4026C413.102 75.6869 412.308 75.829 411.39 75.829Z" fill="#4D6BB9"/>
<path d="M29.347 66.8701C28.9812 66.8679 28.6239 66.7595 28.3182 66.558C28.0126 66.3565 27.7719 66.0705 27.6251 65.7347C27.4783 65.3989 27.4319 65.0276 27.4913 64.6659C27.5508 64.3041 27.7136 63.9674 27.9601 63.6965C29.3677 62.1596 30.6543 60.5156 31.8083 58.7794C32.0895 58.3684 32.5207 58.0846 33.0088 57.9894C33.4969 57.8941 34.0028 57.995 34.4174 58.2702C34.832 58.5454 35.122 58.9729 35.2248 59.4605C35.3277 59.9481 35.2351 60.4566 34.9671 60.8764C33.7043 62.7749 32.2971 64.5728 30.7581 66.2541C30.5794 66.4505 30.3613 66.6069 30.1182 66.7131C29.875 66.8192 29.6122 66.8727 29.347 66.8701Z" fill="#4D6BB9"/>
<path d="M44.2031 58.1795C41.2635 58.1795 37.4099 57.4323 32.4659 55.946C26.4583 54.2427 23.0136 51.8939 20.9505 48.0883C20.7513 47.6502 20.7256 47.1526 20.8786 46.6962C21.0316 46.2398 21.3519 45.8587 21.7747 45.63C22.1975 45.4013 22.6912 45.3421 23.1558 45.4644C23.6205 45.5867 24.0215 45.8813 24.2777 46.2886C25.8303 49.1489 28.5054 50.895 33.5108 52.3117H33.5402C41.6804 54.7596 46.635 55.0488 47.8991 53.1527C47.9768 53.0142 48.025 52.861 48.0406 52.7029C48.0562 52.5448 48.039 52.3852 47.9899 52.2341C47.7948 51.5324 47.0492 50.8388 45.8921 50.2817C44.2673 49.5184 43.3399 49.1435 42.1641 48.6748C41.1138 48.249 39.9219 47.7669 37.9497 46.8912C31.2927 43.9908 30.8331 38.6988 30.817 38.4738L34.5958 38.206V38.1765C34.6092 38.3104 34.994 41.4733 39.4756 43.4257C41.3998 44.28 42.5623 44.7487 43.5858 45.1638C44.767 45.6405 45.7852 46.0529 47.5196 46.8698C50.2962 48.2088 51.2903 49.9764 51.6404 51.2271C51.8343 51.8991 51.8836 52.6047 51.785 53.2972C51.6864 53.9898 51.4422 54.6534 51.0685 55.2443C49.7644 57.202 47.573 58.1795 44.2031 58.1795Z" fill="#4D6BB9"/>
<path d="M26.3783 92.1356C26.0709 92.1356 25.7796 92.1356 25.5177 92.1088C24.8443 92.0928 16.9099 91.908 14.3524 91.7527H14.331C10.4694 91.4581 8.15244 90.3386 7.25184 88.3354C6.03055 85.6144 8.15779 82.8023 8.85528 81.8784L8.88468 81.8409C9.61959 80.9196 9.59554 80.5821 9.4539 80.0063C9.29623 79.4868 8.78313 78.8467 8.13908 78.0406C6.74676 76.2971 4.69969 73.7368 3.32875 68.8305C2.63575 68.7343 1.98426 68.4429 1.45012 67.9901C0.915974 67.5373 0.521148 66.9418 0.3116 66.2728C0.162641 65.7542 0.131168 65.2088 0.219477 64.6764C0.307787 64.144 0.513651 63.6381 0.82203 63.1957C1.17612 62.6792 1.63625 62.2446 2.1716 61.9209C2.5003 53.5972 7.47899 42.3437 8.06692 41.0314C9.31142 38.276 10.0562 35.3205 10.2663 32.3033V32.1587L10.293 32.0141C13.8099 12.5922 25.2024 5.7683 27.8454 4.42923C30.606 0.572714 34.1656 -0.174487 36.4399 0.393278C36.8492 0.487637 37.2312 0.675796 37.5557 0.942984C37.8803 1.21017 38.1387 1.54912 38.3105 1.93321C38.7729 2.95626 38.5778 4.16678 38.2651 5.12019C38.8237 5.71206 39.5719 6.53425 40.3042 7.42607C42.6906 10.3399 43.4683 12.2467 42.9044 13.7786C42.728 14.2741 44.4223 16.122 46.3251 18.1306L46.4293 18.2484C46.8329 18.7546 47.6078 20.166 46.0979 22.3594C44.9301 24.0439 42.1695 26.4194 39.7189 25.6187C39.2673 25.4714 38.6499 25.2571 37.9043 24.9732C37.5275 25.8303 37.5329 26.9229 37.9043 28.1576C37.9952 28.4468 38.1128 28.7923 38.2464 29.186C39.3188 32.1554 40.0661 35.2328 40.4752 38.3639C40.5045 38.6114 40.4849 38.8621 40.4175 39.102C40.3501 39.3418 40.2362 39.566 40.0823 39.7617C39.9285 39.9574 39.7377 40.1208 39.5208 40.2426C39.3039 40.3645 39.0652 40.4423 38.8183 40.4716C38.5714 40.501 38.3212 40.4814 38.0819 40.4138C37.8425 40.3462 37.6189 40.2321 37.4236 40.0779C37.2283 39.9238 37.0652 39.7325 36.9436 39.5152C36.8221 39.2978 36.7444 39.0586 36.7151 38.8112C36.3393 35.9438 35.6502 33.1264 34.66 30.4099C34.5157 29.9787 34.3928 29.6064 34.2912 29.2877C33.3613 26.3096 33.9946 24.1752 34.6921 22.9084C34.8488 22.6175 35.0275 22.339 35.2266 22.0755C35.4488 21.7851 35.6975 21.5162 35.9695 21.2721L36.8327 20.5115L37.9017 20.9239C39.1524 21.4086 40.1385 21.7702 40.7638 21.9791C41.3304 21.8854 42.5196 20.8864 43.0033 20.1606C40.1732 17.1611 38.5003 15.198 39.2619 12.71C38.9947 11.7486 36.9343 9.10795 34.7001 6.90651L33.706 5.92364L34.3474 4.68098C34.4486 4.47477 34.5379 4.26284 34.6146 4.04626C33.5456 4.18285 32.0651 4.90327 30.7049 6.99221L30.3922 7.45553L29.8577 7.6805C29.831 7.69121 26.7577 9.06242 23.2836 12.8118C20.0767 16.2586 15.8997 22.4799 14.0451 32.5765C13.8059 36.0466 12.9497 39.4459 11.517 42.6142C9.43252 47.2286 5.90495 56.6797 5.94236 62.8207C5.96001 63.3083 5.82102 63.7888 5.54585 64.1913C5.27068 64.5939 4.87385 64.8973 4.41374 65.057C4.84158 65.0135 5.27242 65.1027 5.64807 65.3125C6.02371 65.5222 6.32605 65.8425 6.51426 66.23L6.60779 66.4228L6.65857 66.6317C7.82106 71.5809 9.63295 73.8466 11.0867 75.6651C11.974 76.7738 12.7383 77.7326 13.0964 78.9913L13.1124 79.0502C13.5828 80.941 13.206 82.4783 11.8537 84.1869C10.4427 86.0616 10.6672 86.707 10.6966 86.7767C10.726 86.8463 11.1509 87.7006 14.5983 87.9658C17.1585 88.1238 25.5552 88.3166 25.638 88.3193H25.7102C26.2146 88.3445 26.7202 88.332 27.2227 88.2818C25.8331 87.2828 23.6952 87.3337 22.1104 87.3712C21.4305 87.4217 20.7471 87.392 20.074 87.2828C18.0056 86.8222 17.562 85.5876 17.4818 84.8939C17.2493 82.8371 19.4487 81.3481 23.0752 79.61L23.15 79.5752C24.3472 79.0663 30.2613 76.2864 29.6947 71.4015C28.7701 66.5808 26.7551 64.4383 23.5482 61.4924C23.2234 61.1441 23.0415 60.686 23.0386 60.2094C23.0357 59.7327 23.212 59.2725 23.5325 58.9203C23.853 58.5681 24.2941 58.3497 24.7679 58.3087C25.2418 58.2677 25.7137 58.4071 26.0896 58.6991C29.6653 61.9825 32.2843 64.7704 33.4174 70.7507L33.4361 70.8685C34.1737 76.7604 29.3954 81.0187 24.6626 83.0487C24.2777 83.2272 23.933 83.3986 23.6283 83.5629C25.6086 83.6084 28.0913 83.9539 30.0047 85.6652L30.0608 85.7161C31.5841 87.1971 32.0625 88.6166 31.4825 89.9422C30.6915 91.7687 28.2276 92.1356 26.3783 92.1356ZM39.3368 12.4797V12.5038V12.4797Z" fill="#4D6BB9"/>
<path d="M107.74 66.8702C107.476 66.8706 107.215 66.8158 106.974 66.7093C106.733 66.6027 106.517 66.4468 106.339 66.2515C104.8 64.5707 103.394 62.7727 102.133 60.8738C101.855 60.4544 101.756 59.9417 101.855 59.4485C101.955 58.9552 102.246 58.5219 102.665 58.2439C103.083 57.9658 103.595 57.8657 104.087 57.9657C104.579 58.0656 105.012 58.3574 105.289 58.7768C106.444 60.5133 107.73 62.1581 109.137 63.6966C109.385 63.9681 109.549 64.306 109.609 64.6692C109.668 65.0323 109.621 65.405 109.473 65.7418C109.325 66.0785 109.082 66.3648 108.774 66.5656C108.466 66.7665 108.107 66.8732 107.74 66.8728V66.8702Z" fill="#4D6BB9"/>
<path d="M92.8755 58.1794C89.5083 58.1794 87.3249 57.2046 86.0288 55.2335C85.6499 54.6399 85.4019 53.972 85.3014 53.2746C85.2009 52.5772 85.2503 51.8663 85.4462 51.1895C85.7963 49.9415 86.7824 48.1712 89.5511 46.8429C91.3015 46.018 92.3223 45.6056 93.5036 45.1289C94.5271 44.7138 95.6869 44.2451 97.6003 43.3961C102.093 41.4384 102.477 38.2755 102.491 38.1416V38.1711L106.27 38.4389C106.254 38.6638 105.794 43.9558 99.1236 46.8616C97.1648 47.732 95.9755 48.2141 94.9226 48.6399C93.7467 49.1166 92.8194 49.4916 91.1812 50.2629C90.0401 50.8119 89.2945 51.5055 89.0994 52.2072C89.0502 52.3613 89.0336 52.524 89.0506 52.685C89.0677 52.8459 89.1179 53.0015 89.1983 53.1419C90.4436 55.0166 95.409 54.7327 103.549 52.2849H103.579C108.584 50.8681 111.259 49.122 112.812 46.2617C113.061 45.8376 113.465 45.527 113.938 45.3956C114.412 45.2642 114.918 45.3222 115.349 45.5574C115.781 45.7926 116.104 46.1866 116.252 46.6562C116.399 47.1259 116.359 47.6345 116.139 48.0748C114.076 51.8805 110.631 54.2345 104.623 55.9352C99.6715 57.4322 95.8205 58.1794 92.8755 58.1794Z" fill="#4D6BB9"/>
<path d="M110.706 92.1357C108.857 92.1357 106.393 91.7687 105.591 89.9449C105.011 88.6193 105.489 87.1998 107.013 85.7188L107.063 85.6572C108.977 83.9459 111.46 83.6004 113.443 83.5549C113.135 83.3969 112.79 83.2255 112.406 83.0407C107.673 81.0107 102.895 76.7524 103.632 70.8605L103.651 70.7427C104.784 64.7597 107.392 61.9718 110.979 58.691C111.162 58.5227 111.377 58.3923 111.61 58.3071C111.844 58.222 112.092 58.1838 112.34 58.1947C112.589 58.2057 112.833 58.2655 113.058 58.3709C113.283 58.4763 113.486 58.6251 113.654 58.8089C113.822 58.9926 113.952 59.2077 114.037 59.4419C114.122 59.6761 114.16 59.9248 114.149 60.1737C114.138 60.4226 114.078 60.667 113.973 60.8928C113.868 61.1186 113.719 61.3214 113.536 61.4897C110.329 64.4356 108.309 66.5782 107.39 71.3988C106.826 76.2837 112.734 79.0636 113.934 79.5725L114.009 79.6073C117.636 81.3454 119.838 82.8345 119.602 84.8913C119.522 85.5849 119.081 86.8195 117.01 87.2802C116.337 87.3893 115.654 87.419 114.974 87.3686C113.389 87.3311 111.251 87.2802 109.861 88.2791C110.365 88.3305 110.871 88.343 111.377 88.3166H111.446C111.529 88.3166 119.928 88.1211 122.486 87.9631C125.933 87.6953 126.369 86.8115 126.388 86.774C126.406 86.7365 126.655 86.0589 125.231 84.1842C123.878 82.4756 123.501 80.9383 123.972 79.0476L123.988 78.9887C124.346 77.7299 125.113 76.7712 125.997 75.6624C127.451 73.8439 129.263 71.5782 130.426 66.629L130.476 66.4201L130.57 66.2246C130.758 65.8381 131.061 65.5187 131.436 65.3095C131.811 65.1002 132.241 65.0112 132.668 65.0543C132.205 64.892 131.807 64.5849 131.532 64.1783C131.258 63.7717 131.121 63.2872 131.142 62.7966C131.171 56.6771 127.652 47.2259 125.567 42.6088C124.134 39.4416 123.278 36.0431 123.039 32.5738C119.463 13.1144 107.331 7.72335 107.218 7.6805L106.684 7.45554L106.371 6.97615C105.011 4.90059 103.517 4.18017 102.459 4.0302C102.535 4.24876 102.624 4.46251 102.726 4.67027L103.357 5.90757L102.371 6.89045C100.134 9.09188 98.0655 11.7352 97.8089 12.6967C98.5492 15.1927 96.879 17.1504 94.0542 20.1446C94.5379 20.8703 95.7271 21.8693 96.2937 21.963C96.919 21.7541 97.8971 21.3899 99.1558 20.9078L100.225 20.4954L101.088 21.256C101.36 21.5006 101.61 21.7695 101.834 22.0594C102.032 22.3243 102.211 22.6036 102.368 22.895C103.063 24.1591 103.704 26.2936 102.769 29.2743C102.67 29.5877 102.542 29.9653 102.395 30.3938C101.409 33.1115 100.721 35.9284 100.342 38.7951C100.283 39.2948 100.028 39.7505 99.6339 40.0619C99.2395 40.3733 98.7378 40.5149 98.2392 40.4556C97.7406 40.3963 97.2859 40.1409 96.9752 39.7456C96.6644 39.3503 96.5231 38.8476 96.5823 38.3479C96.9914 35.2176 97.7387 32.1411 98.8111 29.1726C98.9447 28.7762 99.0623 28.4307 99.1532 28.1415C99.538 26.9069 99.5407 25.8142 99.1532 24.9572C98.3995 25.2411 97.7902 25.4553 97.3413 25.6026C94.8773 26.4061 92.1194 24.0279 90.9569 22.3433C89.447 20.1472 90.222 18.7385 90.6282 18.2324L90.7297 18.1145C92.6325 16.1059 94.3268 14.258 94.1424 13.7411C93.5865 12.2226 94.3642 10.3238 96.7507 7.41001C97.4829 6.51819 98.2312 5.696 98.7897 5.10413C98.4797 4.15071 98.282 2.94019 98.7443 1.91714C98.9162 1.53305 99.1745 1.19411 99.4991 0.926918C99.8237 0.659731 100.206 0.471572 100.615 0.377212C102.889 -0.190553 106.449 0.556648 109.207 4.42388C111.85 5.76295 123.242 12.5895 126.759 32.0087L126.786 32.1533V32.3033C126.993 35.3189 127.737 38.2729 128.983 41.026C129.57 42.3276 134.557 53.5972 134.878 61.9155C135.414 62.2375 135.874 62.6714 136.227 63.1876C136.536 63.6309 136.742 64.1378 136.83 64.6712C136.918 65.2046 136.886 65.751 136.735 66.2702C136.526 66.9353 136.134 67.5277 135.603 67.9789C135.073 68.43 134.426 68.7215 133.737 68.8198C132.36 73.7261 130.311 76.2864 128.926 78.0299C128.282 78.8333 127.769 79.4761 127.612 79.9956C127.47 80.5714 127.449 80.9089 128.181 81.8302L128.21 81.8677C128.908 82.7916 131.035 85.6037 129.814 88.3247C128.913 90.3279 126.607 91.4474 122.734 91.742H122.705C120.148 91.8973 112.213 92.0821 111.54 92.0982C111.305 92.1249 111.013 92.1357 110.706 92.1357ZM97.7421 12.4583V12.4878V12.4583Z" fill="#4D6BB9"/>
<path d="M92.9958 42.2446C92.7469 42.2449 92.5004 42.1961 92.2703 42.1008C92.0403 42.0055 91.8313 41.8656 91.6553 41.6892C91.4793 41.5128 91.3397 41.3034 91.2446 41.0728C91.1495 40.8423 91.1007 40.5952 91.1011 40.3458V38.3051C91.1011 37.4427 90.5372 36.7142 89.8718 36.7142H47.2015C46.536 36.7142 45.9748 37.4427 45.9748 38.3051V40.3458C45.9844 40.601 45.9425 40.8555 45.8517 41.094C45.7608 41.3326 45.6229 41.5504 45.4461 41.7343C45.2694 41.9182 45.0574 42.0645 44.8229 42.1645C44.5884 42.2644 44.3363 42.3159 44.0814 42.3159C43.8266 42.3159 43.5744 42.2644 43.34 42.1645C43.1055 42.0645 42.8935 41.9182 42.7167 41.7343C42.54 41.5504 42.4021 41.3326 42.3112 41.094C42.2204 40.8555 42.1785 40.601 42.188 40.3458V38.3051C42.188 35.335 44.4382 32.9193 47.2015 32.9193H89.8718C92.6377 32.9193 94.8906 35.3296 94.8906 38.3051V40.3458C94.8906 40.8494 94.691 41.3324 94.3356 41.6884C93.9803 42.0445 93.4984 42.2446 92.9958 42.2446Z" fill="#4D6BB9"/>
<path d="M89.8718 72.1299H47.2015C44.4382 72.1299 42.1881 69.7196 42.1881 66.7469V62.6547C42.2065 62.1638 42.414 61.6991 42.7671 61.3583C43.1202 61.0175 43.5913 60.8272 44.0815 60.8272C44.5717 60.8272 45.0428 61.0175 45.3959 61.3583C45.7489 61.6991 45.9565 62.1638 45.9749 62.6547V66.7469C45.9749 67.6065 46.5361 68.335 47.2015 68.335H89.8718C90.5373 68.335 91.1011 67.6065 91.1011 66.7469V62.6547C91.1011 62.1511 91.3008 61.6681 91.6561 61.312C92.0114 60.9559 92.4934 60.7559 92.9959 60.7559C93.4984 60.7559 93.9803 60.9559 94.3356 61.312C94.691 61.6681 94.8906 62.1511 94.8906 62.6547V66.7469C94.8906 69.7142 92.6324 72.1299 89.8718 72.1299Z" fill="#4D6BB9"/>
</svg>
